<svg width="59" height="59" viewBox="0 0 59 59" fill="none" xmlns="http://www.w3.org/2000/svg">
<rect x="58.8711" y="58.8711" width="58.871" height="58.871" rx="10" transform="rotate(180 58.8711 58.8711)" fill="#1B2133"/>
<g clip-path="url(#clip0_1696_24330)">
<path d="M22.238 24.262H19.1851C18.7636 24.262 18.4219 24.6037 18.4219 25.0252V37.2366C18.4219 37.6581 18.7636 37.9999 19.1851 37.9999H22.238C22.6595 37.9999 23.0012 37.6582 23.0012 37.2366V25.0252C23.0012 24.6037 22.6596 24.262 22.238 24.262Z" fill="white"/>
<path d="M41.3049 26.2852C41.1703 25.1012 40.0643 24.2621 38.8727 24.2621H32.9225C33.4281 23.3566 33.6996 20.7956 33.6875 19.7494C33.6676 18.0176 32.2335 16.6299 30.5017 16.6299H29.8719C29.45 16.6299 29.1086 16.9712 29.1086 17.3931C29.1086 19.158 28.4214 22.3436 27.1253 23.6398C26.253 24.5121 25.5072 24.8282 24.5293 25.317V36.769C26.0265 37.2681 27.9274 38.0001 30.8248 38.0001H35.8174C37.4625 38.0001 38.7437 36.4765 38.1062 34.8667C39.0774 34.6021 39.7937 33.7114 39.7937 32.6575C39.7937 32.3601 39.7363 32.0754 39.6327 31.8138C41.2693 31.3679 41.8717 29.3471 40.7358 28.0782C41.1531 27.612 41.3833 26.9743 41.3049 26.2852Z" fill="white"/>
</g>
<defs>
<clipPath id="clip0_1696_24330">
<rect width="26" height="26" fill="white" transform="translate(16.8711 12)"/>
</clipPath>
</defs>
</svg>
